<svg width="48" height="48" viewBox="0 0 48 48" fill="none" xmlns="http://www.w3.org/2000/svg">
<g clip-path="url(#clip0_161_785)">
<path fill-rule="evenodd" clip-rule="evenodd" d="M24 0C37.2552 0 48 10.7448 48 24C48 37.2552 37.2552 48 24 48C10.7448 48 0 37.2552 0 24C0 10.7448 10.7448 0 24 0Z" fill="black"/>
<path d="M24.2676 15.1344C25.266 15.1344 26.5176 14.4384 27.2628 13.5108C27.9372 12.6708 28.4292 11.496 28.4292 10.3224C28.4292 10.1628 28.416 10.0032 28.3872 9.87244C27.276 9.91684 25.9404 10.6404 25.1388 11.6124C24.5064 12.3516 23.9292 13.5108 23.9292 14.7C23.9292 14.8728 23.958 15.048 23.9724 15.1056C24.042 15.12 24.1548 15.1344 24.2676 15.1344ZM20.7516 32.6724C22.116 32.6724 22.7196 31.7304 24.4224 31.7304C26.1516 31.7304 26.5308 32.6436 28.05 32.6436C29.5404 32.6436 30.5388 31.2228 31.482 29.832C32.5356 28.2372 32.9724 26.6724 33 26.5992C32.9016 26.5704 30.048 25.368 30.048 21.9912C30.048 19.0632 32.2968 17.7432 32.424 17.6424C30.9324 15.4392 28.668 15.3804 28.05 15.3804C26.376 15.3804 25.0128 16.4244 24.1548 16.4244C23.226 16.4244 22.0032 15.4392 20.5548 15.4392C17.7984 15.4392 15 17.7864 15 22.2216C15 24.9756 16.0404 27.8892 17.3208 29.7744C18.4176 31.368 19.3728 32.6724 20.7516 32.6724Z" fill="white"/>
</g>
<defs>
<clipPath id="clip0_161_785">
<rect width="48" height="48" fill="white"/>
</clipPath>
</defs>
</svg>
