<svg width="28" height="32" viewBox="0 0 28 32" fill="none" xmlns="http://www.w3.org/2000/svg">
<path d="M14.0253 10.9691C10.1478 10.9691 4.65028 16.9632 4.65028 20.7469C4.65028 22.451 5.95936 23.4691 8.15321 23.4691C10.538 23.4691 12.1127 17.0317 14.0253 17.0317C15.9545 17.0317 17.5336 23.4691 19.8973 23.4691C22.0912 23.4691 23.4003 22.451 23.4003 20.7469C23.4003 16.9632 17.9027 10.9691 14.0253 10.9691ZM6.83387 10.3534C6.32606 8.66148 4.7616 7.56577 3.33973 7.90562C1.91786 8.24546 1.17713 9.89243 1.68494 11.5843C2.19276 13.2762 3.75721 14.3719 5.17909 14.0321C6.60096 13.6922 7.34168 12.0453 6.83387 10.3534ZM10.9706 9.33872C12.4813 8.94126 13.2372 6.90025 12.6591 4.78013C12.0809 2.66001 10.3876 1.26402 8.87684 1.66148C7.3661 2.05894 6.61024 4.09995 7.18836 6.22007C7.76649 8.34019 9.46034 9.73667 10.9706 9.33872ZM24.7103 7.90611C23.2885 7.56626 21.7245 8.66196 21.2162 10.3539C20.7084 12.0458 21.4491 13.6927 22.871 14.0326C24.2929 14.3724 25.8568 13.2767 26.3651 11.5848C26.8729 9.89292 26.1322 8.24595 24.7103 7.90611ZM17.08 9.33872C18.5907 9.73618 20.2841 8.34019 20.8622 6.22007C21.4403 4.09995 20.6845 2.05943 19.1737 1.66148C17.663 1.26353 15.9696 2.66001 15.3915 4.78013C14.8134 6.90025 15.5692 8.94126 17.08 9.33872Z" fill="#007CFF"/>
<rect x="11.5249" y="12.4692" width="5" height="19" rx="2.5" fill="#007CFF"/>
<path d="M6.27757 9.07586C7.57766 10.376 7.70698 12.3545 6.56641 13.4951C5.02566 14.4685 3.64561 14.3653 2.14561 12.8653C0.845514 11.5652 1.00582 9.7139 2.14639 8.57333C3.28696 7.43276 4.83758 7.63588 6.27757 9.07586Z" fill="#FF6B00"/>
<path d="M20.8942 6.39564C20.1378 8.64568 18.5461 9.98062 17.0249 9.46924C15.5037 8.95785 14.6291 6.79378 15.3855 4.54375C16.1419 2.29371 18.0037 0.957957 19.5249 1.46934C21.0461 1.98073 21.6506 4.1456 20.8942 6.39564Z" fill="#FF6B00"/>
</svg>
