<svg width="48" height="48" viewBox="0 0 48 48" fill="none" xmlns="http://www.w3.org/2000/svg">
<g clip-path="url(#clip0_161_777)">
<path d="M24.0002 46.8571C36.6239 46.8571 46.8574 36.6236 46.8574 24C46.8574 11.3763 36.6239 1.14282 24.0002 1.14282C11.3766 1.14282 1.14307 11.3763 1.14307 24C1.14307 36.6236 11.3766 46.8571 24.0002 46.8571Z" fill="white" stroke="#E2E2E2"/>
<path d="M23.9021 17.5909C25.8347 17.5909 27.1387 18.4252 27.8816 19.1223L30.7856 16.288C29.0027 14.6286 26.6804 13.6115 23.9021 13.6115C21.9946 13.6113 20.1247 14.1416 18.5013 15.143C16.8778 16.1444 15.5648 17.5776 14.709 19.2823L18.037 21.8663C18.8713 19.3863 21.181 17.5909 23.9021 17.5909Z" fill="#EA4335"/>
<path d="M33.7812 24.1303C33.7812 23.2846 33.7126 22.6675 33.5641 22.0275H23.9023V25.8458H29.5743C29.4601 26.7943 28.8429 28.224 27.4703 29.1852L30.7172 31.6995C32.6612 29.9052 33.7812 27.264 33.7812 24.1303Z" fill="#4285F4"/>
<path d="M18.0484 25.9372C17.8237 25.2824 17.7078 24.5952 17.7055 23.9029C17.7055 23.1932 17.8312 22.5074 18.037 21.8663L14.709 19.2834C13.9884 20.7159 13.6127 22.2971 13.6118 23.9006C13.6118 25.5589 14.0118 27.1257 14.709 28.52L18.0484 25.9372Z" fill="#FBBC05"/>
<path d="M23.9019 34.1931C26.6802 34.1931 29.0128 33.2788 30.7168 31.7006L27.4699 29.1851C26.6014 29.7908 25.4345 30.2137 23.9019 30.2137C21.1819 30.2137 18.8711 28.4194 18.0482 25.9371L14.7202 28.5211C16.4128 31.8834 19.8779 34.1931 23.9019 34.1931Z" fill="#34A853"/>
</g>
<defs>
<clipPath id="clip0_161_777">
<rect width="48" height="48" fill="white"/>
</clipPath>
</defs>
</svg>
